<svg width="40" height="40" viewBox="0 0 40 40" fill="none" xmlns="http://www.w3.org/2000/svg">
  <path
    d="M4.54975 9.21738C3.76832 9.34268 2.87134 9.68589 2.27151 10.0945C1.82027 10.3996 1.20943 11.0206 0.890261 11.4891C0.323453 12.3335 0.05931 13.1289 0.00978309 14.1476C-0.0287378 14.9376 0.042801 15.4279 0.290436 16.1524C0.719669 17.4 1.6937 18.495 2.90986 19.1052C3.63625 19.4702 4.21957 19.6064 5.35869 19.6717C7.00958 19.7752 8.3248 20.3146 9.34836 21.3115C10.4545 22.3847 11.0048 23.6813 11.1588 25.5717C11.3459 27.8162 12.375 29.4124 14.2185 30.3059C14.9999 30.6818 15.5777 30.8125 16.5022 30.8125C17.0856 30.8125 17.3497 30.7907 17.7294 30.6926C18.753 30.442 19.6004 29.9517 20.3158 29.2163C21.2733 28.2248 21.6861 27.2551 21.7906 25.7787C21.8566 24.809 21.9612 24.2098 22.1703 23.5887C22.7536 21.8563 23.9423 20.6578 25.6757 20.0422C26.5892 19.7153 26.3966 19.7262 31.1072 19.6772C35.8507 19.6281 35.7462 19.6336 36.6267 19.2958C38.6463 18.5277 40 16.5828 40 14.4473C40 13.7717 39.9285 13.3414 39.7028 12.6876C39.3782 11.7452 38.7233 10.8517 37.9144 10.2416C37.4246 9.87657 36.5606 9.46798 35.9553 9.31544C35.46 9.19014 35.449 9.19014 31.1952 9.19014C26.9469 9.19014 26.9304 9.19014 26.4406 9.31544C24.9108 9.69679 23.6451 10.7046 22.9517 12.0775C22.55 12.8838 22.3904 13.5647 22.3904 14.5018C22.3904 16.8443 21.2843 18.7238 19.3363 19.6881C18.4228 20.1457 17.5863 20.3309 16.4802 20.3309C15.6163 20.3309 15.1155 20.2601 14.4331 20.0313C12.4961 19.3884 11.2689 18.0755 10.7406 16.0871C10.625 15.6567 10.5975 15.3952 10.5755 14.6107C10.5535 13.8426 10.5205 13.5593 10.4159 13.1398C9.92617 11.2494 8.43486 9.7894 6.51432 9.32089C6.00804 9.20104 5.0065 9.14656 4.54975 9.21738Z"
    fill="#000000"
  />
  <path
    d="M26.5987 21.2304C25.8613 21.3884 25.4046 21.6444 24.8323 22.2055C24.4801 22.5542 24.337 22.7449 24.1554 23.1099C23.4675 24.5045 23.7097 26.0517 24.7992 27.1412C25.8448 28.1818 27.2701 28.4868 28.6458 27.9584C30.2197 27.3592 31.1662 25.6594 30.8415 24.0305C30.6214 22.9464 29.906 22.0094 28.9375 21.5354C28.1781 21.1704 27.3636 21.0615 26.5987 21.2304Z"
    fill="#000000"
  />
</svg>
